<svg width="162" height="84" fill="none" xmlns="http://www.w3.org/2000/svg"><path d="M68.256 12.592c3.125 3.76 5.444 8.178 6.958 13.257 1.562 5.029 2.344 10.302 2.344 15.82 0 6.64-.953 12.598-2.857 17.871-1.904 5.225-4.516 9.57-7.837 13.037-3.418 3.565-7.47 6.25-12.158 8.057-4.687 1.806-9.912 2.71-15.674 2.71-6.299 0-11.914-1.05-16.845-3.15-4.932-2.1-8.936-4.98-12.012-8.642-3.223-3.809-5.64-8.252-7.251-13.33C1.36 53.095.58 47.577.58 41.669c0-5.81.757-11.157 2.27-16.04a39.502 39.502 0 017.252-13.257c3.125-3.809 7.153-6.811 12.084-9.009C27.118 1.166 32.758.067 39.106.067c6.689 0 12.426 1.123 17.211 3.37 4.785 2.246 8.765 5.297 11.939 9.155zM61.37 41.669c0-11.621-2.002-20.63-6.006-27.026-3.955-6.397-9.35-9.595-16.186-9.595-6.934 0-12.403 3.198-16.407 9.595-4.003 6.396-6.005 15.405-6.005 27.026 0 11.035 1.904 19.922 5.713 26.66 3.857 6.69 9.375 10.034 16.552 10.034 7.178 0 12.696-3.344 16.553-10.034 3.857-6.738 5.786-15.625 5.786-26.66zM161.86 81H93.231v-9.96c1.319-1.515 3.15-3.2 5.494-5.055 2.343-1.904 5.127-3.955 8.349-6.152 1.953-1.318 4.297-2.759 7.031-4.321a387.232 387.232 0 019.302-5.127c3.858-2.051 6.812-3.858 8.863-5.42 2.099-1.563 4.003-3.491 5.712-5.786 1.123-1.514 2.027-3.394 2.71-5.64.684-2.295 1.026-5.542 1.026-9.741 0-6.104-1.636-10.571-4.907-13.403-3.272-2.881-7.471-4.322-12.598-4.322-3.174 0-6.177.635-9.009 1.905-2.832 1.22-4.956 2.93-6.372 5.127a738.38 738.38 0 001.245 5.566c.537 2.148.806 4.248.806 6.299 0 1.855-.781 3.515-2.344 4.98-1.514 1.416-3.784 2.124-6.811 2.124-2.442 0-4.322-.83-5.64-2.49-1.319-1.709-1.978-3.98-1.978-6.811 0-2.637.733-5.274 2.198-7.91 1.464-2.686 3.564-5.152 6.298-7.398 2.686-2.197 6.006-3.98 9.961-5.347 3.955-1.367 8.228-2.05 12.818-2.05 10.01 0 17.944 2.245 23.803 6.738 5.909 4.443 8.863 10.4 8.863 17.87 0 3.565-.537 6.812-1.612 9.742-1.025 2.93-2.71 5.517-5.053 7.764-2.588 2.49-5.615 4.638-9.082 6.445-3.467 1.758-8.765 4.224-15.894 7.397-4.248 1.905-8.203 3.907-11.865 6.006-3.662 2.051-6.665 4.053-9.009 6.006h56.323V81z" fill="#01996D" fill-opacity=".2"/></svg>