<svg width="161" height="108" fill="none" xmlns="http://www.w3.org/2000/svg"><path d="M68.269 12.592c3.125 3.76 5.444 8.178 6.958 13.257 1.562 5.029 2.343 10.302 2.343 15.82 0 6.64-.952 12.598-2.856 17.871-1.904 5.225-4.517 9.57-7.837 13.037-3.418 3.565-7.47 6.25-12.158 8.057-4.688 1.806-9.912 2.71-15.674 2.71-6.299 0-11.914-1.05-16.846-3.15-4.931-2.1-8.935-4.98-12.012-8.642-3.222-3.809-5.64-8.252-7.25-13.33C1.374 53.095.593 47.577.593 41.669c0-5.81.757-11.157 2.27-16.04a39.502 39.502 0 017.251-13.257C13.24 8.563 17.268 5.561 22.2 3.363 27.131 1.166 32.77.067 39.12.067c6.689 0 12.426 1.123 17.211 3.37 4.785 2.246 8.765 5.297 11.939 9.155zm-6.885 29.077c0-11.621-2.002-20.63-6.006-27.026-3.955-6.397-9.35-9.595-16.187-9.595-6.933 0-12.402 3.198-16.406 9.595-4.004 6.396-6.006 15.405-6.006 27.026 0 11.035 1.905 19.922 5.713 26.66 3.858 6.69 9.375 10.034 16.553 10.034 7.178 0 12.695-3.344 16.553-10.034 3.857-6.738 5.786-15.625 5.786-26.66zm59.472 66.064c-4.589 0-8.789-.586-12.597-1.757-3.809-1.123-7.08-2.662-9.815-4.615-2.734-1.953-4.858-4.199-6.372-6.738-1.465-2.539-2.197-5.151-2.197-7.837 0-2.392.586-4.54 1.758-6.445 1.172-1.953 3.052-2.93 5.64-2.93 2.929 0 5.151.733 6.665 2.197 1.562 1.416 2.343 3.052 2.343 4.908 0 1.562-.268 3.54-.805 5.932-.489 2.393-.879 4.102-1.172 5.127.342.44.952 1.026 1.831 1.758.927.732 2.051 1.392 3.369 1.978a27.85 27.85 0 004.907 1.757c1.709.44 4.126.66 7.251.66 2.93 0 5.737-.489 8.423-1.465 2.734-.977 5.127-2.54 7.178-4.688 2.148-2.246 3.808-4.883 4.98-7.91 1.221-2.979 1.831-6.91 1.831-11.792 0-2.637-.293-5.249-.879-7.837-.537-2.588-1.562-4.834-3.076-6.738-1.514-1.904-3.589-3.37-6.225-4.395-2.588-1.074-5.884-1.611-9.888-1.611h-9.595v-8.423h6.372c6.738 0 11.597-1.855 14.575-5.566 2.979-3.711 4.468-9.302 4.468-16.773 0-6.103-1.44-10.693-4.321-13.77-2.881-3.124-6.958-4.687-12.232-4.687-2.539 0-4.638.318-6.298.952-1.612.586-2.93 1.172-3.955 1.758-1.221.684-2.222 1.44-3.003 2.27a96.71 96.71 0 01-1.758 1.832c.342 1.562.757 3.491 1.245 5.786.488 2.246.732 4.394.732 6.445 0 1.807-.781 3.443-2.343 4.907-1.514 1.416-3.76 2.125-6.739 2.125-2.588 0-4.492-.928-5.713-2.784-1.172-1.855-1.757-4.004-1.757-6.445 0-2.54.708-5.127 2.124-7.764 1.416-2.636 3.515-5.102 6.298-7.397 2.784-2.295 6.177-4.15 10.181-5.567C116.291.775 120.905.067 126.13.067c6.006 0 10.962.904 14.868 2.71 3.955 1.758 7.056 3.907 9.302 6.446 2.197 2.49 3.711 5.102 4.541 7.837.83 2.734 1.245 5.078 1.245 7.03 0 2.442-.342 4.908-1.025 7.398-.684 2.442-1.807 4.712-3.37 6.812-1.709 2.295-3.979 4.394-6.811 6.299-2.783 1.855-6.299 3.369-10.547 4.54v1.172c2.734.245 5.64.855 8.716 1.832 3.125.976 5.932 2.417 8.423 4.32 2.588 2.003 4.712 4.59 6.372 7.765 1.66 3.125 2.49 7.104 2.49 11.938 0 9.375-3.76 16.968-11.279 22.778-7.52 5.86-16.919 8.789-28.199 8.789z" fill="#01996D" fill-opacity=".2"/></svg>